<svg width="500" height="362" viewBox="0 0 500 362" fill="none" xmlns="http://www.w3.org/2000/svg">
<path fill-rule="evenodd" clip-rule="evenodd" d="M42.5961 2.26247C40.912 3.94661 39.4369 8.24779 36.8159 19.1136C30.9693 43.3567 28.914 58.469 27.7505 85.7462L27.0726 101.645L21.8951 94.5381C19.0466 90.6287 13.7744 82.6847 10.1785 76.884C1.76172 63.3094 0.607052 63.2703 0.219233 76.5421C-0.563244 103.29 11.2726 133.211 28.321 147.586C32.9084 151.455 33.009 151.665 35.6681 162.94C37.15 169.228 39.3656 177.449 40.5906 181.21C41.8156 184.971 42.7299 188.139 42.6234 188.25C42.3069 188.577 27.5024 177.067 18.9401 169.839C7.58585 160.251 5.01471 160.961 8.84113 172.628C14.6672 190.395 27.1898 209.742 39.559 220.085C43.3112 223.223 50.0516 227.609 54.5384 229.832C61.1108 233.088 63.0489 234.566 64.5113 237.433C66.8265 241.97 77.7597 259.519 80.2224 262.65C81.253 263.96 81.9427 265.186 81.7541 265.373C81.2081 265.92 71.4168 262.352 57.131 256.401C46.5681 252.001 43.6072 251.12 42.4906 252.046C40.7703 253.474 41.8214 255.803 47.796 263.793C57.8949 277.3 74.0085 290.535 88.0384 296.846C95.1022 300.025 105.541 302.831 110.296 302.831C112.964 302.831 115.074 304.299 123.157 311.775C133.862 321.676 148.288 333 158.753 339.715C162.514 342.129 165.689 344.183 165.808 344.279C165.927 344.377 164.967 347.482 163.675 351.181C159.688 362.59 150.101 361.444 249.557 361.444C297.044 361.444 336.592 361.177 337.442 360.851C339.52 360.053 339.387 356.656 337.034 350.465C335.96 347.638 335.08 344.993 335.08 344.586C335.079 344.18 338.047 341.931 341.673 339.587C352.031 332.896 366.483 321.527 377.025 311.775C385.108 304.299 387.218 302.831 389.886 302.831C394.641 302.831 405.08 300.025 412.144 296.846C426.174 290.535 442.288 277.3 452.387 263.793C458.361 255.803 459.412 253.474 457.692 252.046C456.575 251.12 453.614 252.001 443.052 256.401C428.766 262.352 418.974 265.92 418.428 265.373C418.24 265.186 418.93 263.96 419.96 262.65C422.423 259.519 433.356 241.97 435.671 237.433C437.134 234.566 439.072 233.088 445.644 229.832C450.131 227.609 456.871 223.223 460.624 220.085C472.993 209.742 485.515 190.395 491.341 172.628C495.168 160.961 492.597 160.251 481.242 169.839C471.973 177.665 457.869 188.565 457.495 188.191C457.352 188.049 458.05 185.761 459.048 183.106C460.044 180.451 462.296 172.251 464.051 164.88L467.243 151.481L471.878 147.573C488.91 133.212 500.745 103.278 499.963 76.5421C499.575 63.2703 498.421 63.3094 490.004 76.884C486.408 82.6847 481.136 90.6287 478.287 94.5381L473.11 101.645L472.432 85.7462C471.269 58.469 469.213 43.3567 463.367 19.1136C460.746 8.24779 459.271 3.94661 457.586 2.26247C452.731 -2.5926 444.489 0.906573 444.489 7.82187C444.489 9.89773 444.891 12.6515 445.381 13.942C447.673 19.9683 454.876 56.3667 453.958 57.284C453.765 57.4774 450.127 54.4257 445.873 50.5025C436.319 41.6882 426.097 33.2138 425.021 33.2138C424.577 33.2138 423.704 33.8292 423.08 34.5804C422.198 35.6433 422.741 38.4108 425.524 47.0356C431.599 65.8551 441.113 84.868 451.42 98.7836C455.223 103.918 456.212 106.035 456.211 109.041C456.209 114.595 453.273 138.906 452.419 140.431C451.915 141.331 450.854 140.205 449.007 136.812C447.532 134.103 443.282 127.268 439.563 121.625C434.719 114.276 432.246 111.364 430.848 111.364C427.807 111.364 427.424 115.18 428.692 132.855C430.031 151.52 432.317 163.517 437.2 177.504L440.682 187.474L437.692 194.939C432.651 207.53 426.623 219.911 425.931 219.101C425.568 218.677 424.306 214.375 423.124 209.54C421.942 204.704 419.878 197.122 418.537 192.689C416.53 186.061 415.747 184.629 414.125 184.629C411.671 184.629 410.288 187.792 406.909 201.119C402.863 217.084 401.467 228.638 401.587 245.184L401.696 260.315L396.04 267.5C392.93 271.451 387.669 277.607 384.352 281.179L378.319 287.674L378.434 268.633C378.546 250.204 378.488 249.592 376.597 249.592C375.233 249.592 372.962 252.098 369.076 257.895C358.188 274.135 349.772 292.6 345.406 309.822C343.691 316.59 342.689 318.741 340.392 320.6C336.719 323.57 329.108 328.473 328.813 328.059C328.689 327.884 327.942 325.983 327.154 323.834L325.721 319.927L309.153 319.438L292.585 318.95L285.239 304.297C275.625 285.119 268.553 262.544 266.192 243.497L265.615 238.846L269.472 237.105C273.852 235.129 288.717 223.355 289.539 221.21C289.94 220.167 291.836 219.797 296.771 219.797C313.361 219.797 332.254 213.401 347.29 202.697C360.845 193.046 374.215 175.773 379.727 160.791C384.492 147.838 385.114 143.627 385.603 121.038C386.315 88.1972 388.162 89.8726 351.247 89.8726H325.311V84.4998V79.1269H329.023C331.064 79.1269 333.262 78.5994 333.907 77.9547C334.684 77.1781 335.079 72.9619 335.079 65.4507C335.079 57.9395 334.684 53.7233 333.907 52.9467C332.208 51.2479 167.974 51.2479 166.275 52.9467C164.659 54.5634 164.659 76.338 166.275 77.9547C166.92 78.5994 169.118 79.1269 171.16 79.1269H174.872V84.4998V89.8726H148.936C112.021 89.8726 113.868 88.1972 114.579 121.038C115.069 143.627 115.691 147.838 120.456 160.791C125.968 175.773 139.337 193.046 152.892 202.697C167.928 213.401 186.822 219.797 203.411 219.797C208.346 219.797 210.243 220.167 210.643 221.21C211.466 223.355 226.331 235.129 230.71 237.105L234.568 238.846L233.99 243.497C231.629 262.544 224.558 285.119 214.943 304.297L207.597 318.95L192.037 319.219C183.092 319.375 175.953 319.923 175.248 320.508C174.573 321.069 173.739 322.81 173.394 324.379C172.498 328.461 171.554 328.638 166.847 325.612C157.77 319.776 157.066 318.857 154.777 309.822C150.411 292.6 141.994 274.135 131.107 257.895C127.221 252.098 124.95 249.592 123.586 249.592C121.695 249.592 121.636 250.204 121.748 268.633L121.864 287.674L115.83 281.179C112.513 277.607 107.253 271.451 104.142 267.5L98.4861 260.315L98.5955 245.184C98.7156 228.638 97.3197 217.084 93.2735 201.119C89.8944 187.792 88.5112 184.629 86.0573 184.629C84.4357 184.629 83.6522 186.061 81.6457 192.689C80.3045 197.122 78.2403 204.704 77.0583 209.54C75.8763 214.375 74.6142 218.677 74.2517 219.101C73.5591 219.911 67.5318 207.53 62.4902 194.939L59.5009 187.474L62.9825 177.504C67.8659 163.517 70.1518 151.52 71.4901 132.855C72.7581 115.18 72.3752 111.364 69.3341 111.364C67.9362 111.364 65.4638 114.276 60.6194 121.625C56.9005 127.268 52.6501 134.103 51.176 136.812C49.3287 140.205 48.2678 141.331 47.7638 140.431C46.91 138.906 43.9735 114.595 43.9715 109.041C43.9705 106.035 44.9591 103.918 48.7621 98.7836C59.0691 84.868 68.5839 65.8551 74.6581 47.0356C77.4412 38.4108 77.9844 35.6433 77.1023 34.5804C76.479 33.8292 75.6057 33.2138 75.1612 33.2138C74.0857 33.2138 63.8636 41.6882 54.3098 50.5025C50.0555 54.4257 46.4176 57.4774 46.2242 57.284C45.3069 56.3667 52.5094 19.9683 54.8012 13.942C55.2916 12.6515 55.6931 9.89773 55.6931 7.82187C55.6931 0.906573 47.4512 -2.5926 42.5961 2.26247ZM174.878 124.307C174.887 156.863 179.423 175.936 192.415 198.062C194.07 200.882 195.079 203.19 194.654 203.19C194.229 203.19 190.594 202.284 186.575 201.176C172.929 197.415 157.288 187.271 148.499 176.48C135.105 160.038 129.936 143.338 129.936 116.518V105.503H152.404H174.872L174.878 124.307ZM370.247 116.518C370.247 143.338 365.077 160.038 351.683 176.48C342.894 187.271 327.254 197.415 313.608 201.176C309.589 202.284 305.954 203.19 305.529 203.19C305.104 203.19 306.112 200.882 307.768 198.062C320.759 175.936 325.295 156.863 325.305 124.307L325.311 105.503H347.779H370.247V116.518Z" fill="#FFFF00"/>
<path fill-rule="evenodd" clip-rule="evenodd" d="M42.5961 2.26245C40.9169 3.94169 39.4213 8.28 36.7876 19.1135C31.743 39.8673 29.4581 56.0052 28.1247 80.2962L26.9612 101.491L21.8395 94.4609C19.0222 90.5944 13.7744 82.6847 10.1785 76.884C1.76175 63.3093 0.607086 63.2703 0.219266 76.5421C-0.563211 103.294 11.2619 133.209 28.2351 147.42C32.8918 151.319 32.9612 151.464 35.6466 162.864C37.1373 169.194 39.3861 177.427 40.6443 181.161C41.9016 184.894 42.8315 188.048 42.7085 188.171C42.3285 188.551 28.0905 177.643 19.2801 170.221C7.46768 160.269 4.97372 160.844 8.8441 172.628C13.3455 186.333 22.6698 202.642 31.828 212.828C37.8368 219.512 46.9129 226.221 55.4958 230.326C61.1988 233.052 62.9952 234.461 64.4762 237.362C66.8187 241.955 77.7412 259.495 80.2224 262.65C81.253 263.96 81.9427 265.185 81.7542 265.373C81.2071 265.92 71.411 262.35 57.0724 256.376C45.5746 251.586 43.5847 251.024 42.3841 252.225C41.1826 253.426 41.5274 254.438 44.9269 259.698C53.9865 273.716 72.9574 290.063 88.0404 296.847C95.1032 300.025 105.542 302.831 110.297 302.831C112.964 302.831 115.074 304.299 123.157 311.775C133.862 321.676 148.288 333 158.753 339.715C162.514 342.129 165.689 344.182 165.808 344.279C165.927 344.377 164.967 347.482 163.675 351.181C159.688 362.59 150.101 361.444 249.557 361.444C297.044 361.444 336.592 361.177 337.442 360.851C339.52 360.053 339.387 356.656 337.034 350.465C335.96 347.638 335.08 344.99 335.08 344.581C335.079 344.171 337.607 342.229 340.696 340.263C352.336 332.861 375.32 314.328 383.373 305.851C385.515 303.598 387.11 302.831 389.66 302.831C394.62 302.831 404.955 300.08 412.142 296.847C427.225 290.063 446.196 273.716 455.256 259.698C458.655 254.438 459 253.426 457.798 252.225C456.598 251.024 454.608 251.586 443.11 256.376C428.772 262.35 418.975 265.92 418.428 265.373C418.24 265.185 418.93 263.96 419.96 262.65C422.441 259.495 433.364 241.955 435.706 237.362C437.187 234.461 438.984 233.052 444.687 230.326C453.27 226.221 462.346 219.512 468.355 212.828C477.513 202.642 486.837 186.333 491.338 172.628C495.209 160.844 492.715 160.269 480.903 170.221C472.679 177.148 457.859 188.562 457.531 188.22C457.439 188.126 458.367 184.971 459.592 181.21C460.817 177.449 463.04 169.194 464.533 162.864C467.22 151.465 467.292 151.318 471.948 147.42C488.921 133.209 500.746 103.294 499.963 76.5421C499.575 63.2703 498.421 63.3093 490.004 76.884C486.408 82.6847 481.16 90.5944 478.343 94.4609L473.221 101.491L472.058 80.2962C470.724 56.0052 468.44 39.8673 463.395 19.1135C459.52 3.17485 457.708 0 452.48 0C448.262 0 444.489 3.37901 444.492 7.15366C444.493 8.86026 445.833 15.5323 447.467 21.9797C450.621 34.4163 454.655 56.5875 453.901 57.3416C453.654 57.5888 450.226 54.7568 446.284 51.0486C437.15 42.455 426.152 33.2138 425.058 33.2138C424.594 33.2138 423.702 33.8321 423.074 34.5872C422.184 35.6608 422.794 38.6032 425.868 48.0535C430.874 63.4363 441.452 84.8543 449.757 96.4186C455.015 103.741 456.21 106.096 456.202 109.118C456.188 115.032 453.361 138.747 452.485 140.313C451.889 141.376 451.008 140.489 449.007 136.812C447.532 134.103 443.282 127.268 439.563 121.625C434.719 114.276 432.246 111.364 430.848 111.364C427.807 111.364 427.424 115.18 428.692 132.855C430.031 151.52 432.317 163.517 437.2 177.504L440.682 187.474L437.692 194.939C432.609 207.636 426.621 219.908 425.905 219.101C425.53 218.677 424.256 214.375 423.076 209.54C418.73 191.732 416.194 184.629 414.182 184.629C411.685 184.629 410.924 186.291 407.441 199.35C402.984 216.052 401.462 227.972 401.587 245.184L401.696 260.315L396.04 267.5C392.93 271.451 387.67 277.607 384.352 281.179L378.319 287.674L378.434 268.633C378.547 250.204 378.488 249.592 376.597 249.592C375.233 249.592 372.962 252.098 369.076 257.895C358.31 273.954 349.641 293.003 345.373 309.979L343.118 318.95L336.412 323.572C329.384 328.418 328.241 328.919 328.241 327.157C328.241 326.566 327.532 324.588 326.665 322.761L325.088 319.438H309.192H293.297L289.412 312.844C284.679 304.812 278.619 291.35 275.032 280.895C272.164 272.536 267.196 251.568 266.217 243.683L265.615 238.846L269.569 237.059C273.697 235.194 287.985 223.828 289.415 221.271C290.024 220.184 291.973 219.797 296.85 219.797C330.574 219.797 364.033 196.828 378.243 163.923C384.059 150.453 385.877 139.342 385.877 117.267C385.877 88.6026 387.483 89.8725 351.247 89.8725H325.311V84.4997V79.1269H329.023C331.064 79.1269 333.262 78.5994 333.907 77.9547C334.684 77.178 335.079 72.9618 335.079 65.4506C335.079 57.9395 334.684 53.7233 333.907 52.9466C332.208 51.2479 167.974 51.2479 166.275 52.9466C164.659 54.5634 164.659 76.3379 166.275 77.9547C166.92 78.5994 169.118 79.1269 171.16 79.1269H174.872V84.4997V89.8725H148.936C112.7 89.8725 114.306 88.6026 114.306 117.267C114.306 132.211 114.704 137.921 116.289 145.697C121.992 173.682 140.357 197.734 165.592 210.266C178.176 216.515 191.17 219.797 203.325 219.797C208.786 219.797 210.162 220.13 211.276 221.72C213.379 224.723 226.731 235.301 230.773 237.167C235.165 239.194 235.17 239.272 232.044 254.299C227.286 277.166 220.363 296.545 211.654 311.379L206.923 319.438H191.331H175.739L173.794 323.834C172.725 326.252 171.541 328.222 171.163 328.213C170.785 328.204 167.458 326.115 163.771 323.572L157.064 318.95L154.81 309.979C150.542 293.003 141.873 273.954 131.107 257.895C127.221 252.098 124.95 249.592 123.586 249.592C121.695 249.592 121.636 250.204 121.748 268.633L121.864 287.674L115.831 281.179C112.513 277.607 107.253 271.451 104.142 267.5L98.4861 260.315L98.5955 245.184C98.7205 227.972 97.1986 216.052 92.7421 199.35C89.2585 186.291 88.4975 184.629 86.0006 184.629C83.9883 184.629 81.4523 191.732 77.1062 209.54C75.9261 214.375 74.6523 218.677 74.2772 219.101C73.5611 219.908 67.5738 207.636 62.4902 194.939L59.5009 187.474L62.9825 177.504C67.8659 163.517 70.1518 151.52 71.4901 132.855C72.7581 115.18 72.3752 111.364 69.3342 111.364C67.9363 111.364 65.4638 114.276 60.6195 121.625C56.9005 127.268 52.6501 134.103 51.176 136.812C49.1744 140.489 48.2933 141.376 47.6974 140.313C46.8211 138.747 43.995 115.032 43.9804 109.118C43.9725 106.096 45.1673 103.741 50.4258 96.4186C58.7302 84.8543 69.3088 63.4363 74.3143 48.0535C77.3885 38.6032 77.9991 35.6608 77.1081 34.5872C76.481 33.8321 75.5881 33.2138 75.1241 33.2138C74.031 33.2138 63.0324 42.455 53.8986 51.0486C49.9569 54.7568 46.529 57.5888 46.2819 57.3416C45.5277 56.5875 49.5612 34.4163 52.7156 21.9797C56.4365 7.30605 56.4892 4.67532 53.119 2.02506C49.7019 -0.6633 45.4261 -0.566586 42.5961 2.26245ZM174.878 124.307C174.884 144.566 176.319 157.432 179.892 169.271C182.723 178.647 187.485 189.653 191.802 196.793C193.735 199.991 195.15 202.775 194.945 202.98C194.74 203.185 191.128 202.411 186.92 201.262C172.802 197.403 157.185 187.311 148.468 176.414C134.856 159.398 129.936 143.663 129.936 117.155V105.503H152.404H174.872L174.878 124.307ZM370.247 117.155C370.247 143.663 365.326 159.398 351.715 176.414C343.095 187.191 327.436 197.365 313.608 201.176C309.589 202.284 305.954 203.19 305.529 203.19C305.104 203.19 306.112 200.882 307.768 198.061C320.759 175.936 325.295 156.863 325.305 124.307L325.311 105.503H347.779H370.247V117.155Z" fill="#FED130"/>
<path fill-rule="evenodd" clip-rule="evenodd" d="M42.5961 2.26245C40.9169 3.94169 39.4213 8.28 36.7876 19.1135C31.743 39.8673 29.4581 56.0052 28.1247 80.2962L26.9612 101.491L21.8395 94.4609C19.0222 90.5944 13.7744 82.6847 10.1785 76.884C1.76175 63.3093 0.607086 63.2703 0.219266 76.5421C-0.563211 103.294 11.2619 133.209 28.2351 147.42C32.8918 151.319 32.9612 151.464 35.6466 162.864C37.1373 169.194 39.3861 177.427 40.6443 181.161C41.9016 184.894 42.8315 188.048 42.7085 188.171C42.3285 188.551 28.0905 177.643 19.2801 170.221C7.46768 160.269 4.97372 160.844 8.8441 172.628C13.3455 186.333 22.6698 202.642 31.828 212.828C37.8368 219.512 46.9129 226.221 55.4958 230.326C61.1988 233.052 62.9952 234.461 64.4762 237.362C66.8187 241.955 77.7412 259.495 80.2224 262.65C81.253 263.96 81.9427 265.185 81.7542 265.373C81.2071 265.92 71.411 262.35 57.0724 256.376C45.5746 251.586 43.5847 251.024 42.3841 252.225C41.1826 253.426 41.5274 254.438 44.9269 259.698C53.9865 273.716 72.9574 290.063 88.0404 296.847C95.1032 300.025 105.542 302.831 110.297 302.831C112.964 302.831 115.074 304.299 123.157 311.775C133.862 321.676 148.288 333 158.753 339.715C162.514 342.129 165.689 344.182 165.808 344.279C165.927 344.377 164.967 347.482 163.675 351.181C159.688 362.59 150.101 361.444 249.557 361.444C297.044 361.444 336.592 361.177 337.442 360.851C339.52 360.053 339.387 356.656 337.034 350.465C335.96 347.638 335.08 344.99 335.08 344.581C335.079 344.171 337.607 342.229 340.696 340.263C352.336 332.861 375.32 314.328 383.373 305.851C385.515 303.598 387.11 302.831 389.66 302.831C394.62 302.831 404.955 300.08 412.142 296.847C427.225 290.063 446.196 273.716 455.256 259.698C458.655 254.438 459 253.426 457.798 252.225C456.598 251.024 454.608 251.586 443.11 256.376C428.772 262.35 418.975 265.92 418.428 265.373C418.24 265.185 418.93 263.96 419.96 262.65C422.441 259.495 433.364 241.955 435.706 237.362C437.187 234.461 438.984 233.052 444.687 230.326C453.27 226.221 462.346 219.512 468.355 212.828C477.513 202.642 486.837 186.333 491.338 172.628C495.209 160.844 492.715 160.269 480.903 170.221C472.679 177.148 457.859 188.562 457.531 188.22C457.439 188.126 458.367 184.971 459.592 181.21C460.817 177.449 463.04 169.194 464.533 162.864C467.22 151.465 467.292 151.318 471.948 147.42C488.921 133.209 500.746 103.294 499.963 76.5421C499.575 63.2703 498.421 63.3093 490.004 76.884C486.408 82.6847 481.16 90.5944 478.343 94.4609L473.221 101.491L472.058 80.2962C470.724 56.0052 468.44 39.8673 463.395 19.1135C459.52 3.17485 457.708 0 452.48 0C448.262 0 444.489 3.37901 444.492 7.15366C444.493 8.86026 445.833 15.5323 447.467 21.9797C450.621 34.4163 454.655 56.5875 453.901 57.3416C453.654 57.5888 450.226 54.7568 446.284 51.0486C437.15 42.455 426.152 33.2138 425.058 33.2138C424.594 33.2138 423.702 33.8321 423.074 34.5872C422.184 35.6608 422.794 38.6032 425.868 48.0535C430.874 63.4363 441.452 84.8543 449.757 96.4186C455.015 103.741 456.21 106.096 456.202 109.118C456.188 115.032 453.361 138.747 452.485 140.313C451.889 141.376 451.008 140.489 449.007 136.812C447.532 134.103 443.282 127.268 439.563 121.625C434.719 114.276 432.246 111.364 430.848 111.364C427.807 111.364 427.424 115.18 428.692 132.855C430.031 151.52 432.317 163.517 437.2 177.504L440.682 187.474L437.692 194.939C432.609 207.636 426.621 219.908 425.905 219.101C425.53 218.677 424.256 214.375 423.076 209.54C418.73 191.732 416.194 184.629 414.182 184.629C411.685 184.629 410.924 186.291 407.441 199.35C402.984 216.052 401.462 227.972 401.587 245.184L401.696 260.315L396.04 267.5C392.93 271.451 387.67 277.607 384.352 281.179L378.319 287.674L378.434 268.633C378.547 250.204 378.488 249.592 376.597 249.592C375.233 249.592 372.962 252.098 369.076 257.895C358.31 273.954 349.641 293.003 345.373 309.979L343.118 318.95L336.412 323.572C329.384 328.418 328.241 328.919 328.241 327.157C328.241 326.566 327.532 324.588 326.665 322.761L325.088 319.438H309.128H293.168L289.816 313.719C278.444 294.317 268.763 265.536 266.07 243.128C265.575 239.003 265.724 238.567 267.823 238.014C270.569 237.292 279.877 230.383 286.395 224.233C290.952 219.932 291.282 219.797 297.277 219.797C330.554 219.797 364.116 196.635 378.243 163.923C384.059 150.453 385.877 139.342 385.877 117.267C385.877 88.6026 387.483 89.8725 351.247 89.8725H325.311V84.4997V79.1269H329.023C331.064 79.1269 333.262 78.5994 333.907 77.9547C334.684 77.178 335.079 72.9618 335.079 65.4506C335.079 57.9395 334.684 53.7233 333.907 52.9466C332.208 51.2479 167.974 51.2479 166.275 52.9466C164.659 54.5634 164.659 76.3379 166.275 77.9547C167.162 78.8417 182.292 79.1269 228.389 79.1269H289.33L288.864 115.516C288.388 152.766 288.099 155.927 283.86 170.21C276.576 194.751 257.169 221.531 237.392 234.328C233.581 236.794 232.516 237.906 233.729 238.152C235.152 238.443 235.438 239.596 235.438 245.049C235.438 257.768 238.293 275.332 242.446 288.178C244.898 295.758 252.076 311.458 254.908 315.437C256.02 316.997 256.929 318.537 256.929 318.856C256.929 319.176 238.662 319.438 216.334 319.438H175.739L173.794 323.834C172.725 326.252 171.541 328.222 171.163 328.213C170.785 328.204 167.458 326.115 163.771 323.572L157.064 318.95L154.81 309.979C150.542 293.003 141.873 273.954 131.107 257.895C127.221 252.098 124.95 249.592 123.586 249.592C121.695 249.592 121.636 250.204 121.748 268.633L121.864 287.674L115.831 281.179C112.513 277.607 107.253 271.451 104.142 267.5L98.4861 260.315L98.5955 245.184C98.7205 227.972 97.1986 216.052 92.7421 199.35C89.2585 186.291 88.4975 184.629 86.0006 184.629C83.9883 184.629 81.4523 191.732 77.1062 209.54C75.9261 214.375 74.6523 218.677 74.2772 219.101C73.5611 219.908 67.5738 207.636 62.4902 194.939L59.5009 187.474L62.9825 177.504C67.8659 163.517 70.1518 151.52 71.4901 132.855C72.7581 115.18 72.3752 111.364 69.3342 111.364C67.9363 111.364 65.4638 114.276 60.6195 121.625C56.9005 127.268 52.6501 134.103 51.176 136.812C49.1744 140.489 48.2933 141.376 47.6974 140.313C46.8211 138.747 43.995 115.032 43.9804 109.118C43.9725 106.096 45.1673 103.741 50.4258 96.4186C58.7302 84.8543 69.3088 63.4363 74.3143 48.0535C77.3885 38.6032 77.9991 35.6608 77.1081 34.5872C76.481 33.8321 75.5881 33.2138 75.1241 33.2138C74.031 33.2138 63.0324 42.455 53.8986 51.0486C49.9569 54.7568 46.529 57.5888 46.2819 57.3416C45.5277 56.5875 49.5612 34.4163 52.7156 21.9797C56.4365 7.30605 56.4892 4.67532 53.119 2.02506C49.7019 -0.6633 45.4261 -0.566586 42.5961 2.26245ZM119.935 91.4013C114.881 94.1444 114.306 96.7878 114.306 117.267C114.306 139.342 116.124 150.453 121.94 163.923C136.198 196.94 169.596 219.797 203.584 219.797H210.446L206.502 215.645C204.333 213.362 201.198 209.714 199.534 207.537C196.808 203.973 195.757 203.404 188.884 201.784C174.478 198.388 157.541 187.756 148.468 176.414C134.856 159.398 129.936 143.663 129.936 117.155V105.503H152.404H174.872V97.6875V89.8725L148.74 89.9116C127.534 89.9438 122.105 90.2242 119.935 91.4013ZM370.247 117.155C370.247 143.663 365.326 159.398 351.715 176.414C343.095 187.191 327.436 197.365 313.608 201.176C309.589 202.284 305.954 203.19 305.529 203.19C305.104 203.19 306.103 200.882 307.75 198.061C314.763 186.045 319.164 174.792 322.529 160.277C324.051 153.709 324.588 146.902 325.02 128.703L325.571 105.503H347.909H370.247V117.155Z" fill="#FFCC00"/>
<path fill-rule="evenodd" clip-rule="evenodd" d="M42.6361 2.22238C41.1376 3.72091 39.5814 7.77201 37.8533 14.6775C31.7273 39.1492 29.6182 53.3872 28.1314 80.2962L26.9611 101.491L21.8394 94.4609C19.0221 90.5944 13.7743 82.6847 10.1784 76.884C1.76167 63.3093 0.607 63.2703 0.219181 76.5421C-0.562319 103.275 11.2618 133.21 28.2076 147.397C32.8224 151.26 32.9181 151.46 35.6524 162.841C37.1763 169.183 39.4368 177.427 40.6765 181.161C41.9161 184.894 42.8315 188.048 42.7084 188.171C42.3284 188.551 28.0904 177.643 19.28 170.221C7.4676 160.269 4.97363 160.844 8.84401 172.628C13.3455 186.333 22.6697 202.642 31.8279 212.828C37.8367 219.512 46.9128 226.221 55.4957 230.326C61.2299 233.068 62.9912 234.454 64.4995 237.408C66.7395 241.8 77.704 259.365 80.2771 262.685C81.2774 263.975 81.9426 265.186 81.7541 265.373C81.207 265.92 71.4109 262.35 57.0723 256.376C45.5745 251.586 43.5846 251.024 42.3841 252.225C41.1825 253.426 41.5273 254.438 44.9269 259.698C53.9864 273.716 72.9573 290.063 88.0403 296.847C95.148 300.045 105.549 302.831 110.378 302.831C113.019 302.831 114.803 303.916 119.621 308.448C122.904 311.538 127.337 315.628 129.472 317.539C135.351 322.8 153.119 336.221 159.73 340.396C162.954 342.431 165.689 344.178 165.808 344.276C165.927 344.375 164.967 347.482 163.675 351.181C159.688 362.59 150.101 361.444 249.557 361.444C297.044 361.444 336.592 361.177 337.441 360.851C339.52 360.053 339.387 356.656 337.034 350.465C335.96 347.638 335.08 344.99 335.08 344.581C335.079 344.171 337.607 342.229 340.696 340.263C352.336 332.861 375.32 314.328 383.373 305.851C385.514 303.598 387.11 302.831 389.66 302.831C394.62 302.831 404.955 300.08 412.142 296.847C427.225 290.063 446.196 273.716 455.256 259.698C458.655 254.438 459 253.426 457.798 252.225C456.598 251.024 454.608 251.586 443.11 256.376C428.771 262.35 418.975 265.92 418.428 265.373C418.24 265.186 418.901 263.975 419.898 262.685C422.23 259.661 433.997 240.753 436.019 236.776C437.156 234.541 439.467 232.822 444.693 230.323C453.271 226.221 462.348 219.51 468.354 212.828C477.513 202.642 486.837 186.333 491.338 172.628C495.209 160.844 492.715 160.269 480.902 170.221C472.679 177.148 457.859 188.562 457.531 188.22C457.439 188.126 458.367 184.971 459.592 181.21C460.817 177.449 463.04 169.194 464.533 162.864C467.22 151.465 467.292 151.318 471.947 147.42C488.921 133.209 500.746 103.294 499.963 76.5421C499.575 63.2703 498.421 63.3093 490.004 76.884C486.408 82.6847 481.16 90.5944 478.343 94.4609L473.221 101.491L472.051 80.2962C470.568 53.4409 468.452 39.1356 462.37 14.8387C460.983 9.29887 459.141 3.90065 458.274 2.84172C455.815 -0.164128 450.407 -0.60567 447.176 1.93616C443.68 4.68606 443.717 7.18784 447.467 21.9797C450.621 34.4163 454.655 56.5875 453.901 57.3416C453.653 57.5887 450.226 54.7568 446.284 51.0486C437.15 42.455 426.152 33.2138 425.058 33.2138C424.594 33.2138 423.701 33.8321 423.074 34.5872C422.183 35.6608 422.794 38.6032 425.868 48.0535C430.874 63.4363 441.452 84.8543 449.757 96.4186C455.015 103.741 456.21 106.095 456.202 109.118C456.187 115.032 453.361 138.747 452.485 140.313C451.889 141.376 451.008 140.489 449.006 136.812C447.532 134.102 443.282 127.268 439.563 121.625C434.719 114.276 432.246 111.364 430.848 111.364C427.807 111.364 427.424 115.18 428.692 132.855C430.028 151.48 432.317 163.516 437.161 177.394C440.517 187.006 440.566 187.359 439.119 191.461C437.1 197.182 428.792 215.933 427.247 218.256C425.764 220.485 425.847 220.663 422.973 209.051C418.601 191.389 416.168 184.629 414.182 184.629C411.685 184.629 410.924 186.291 407.44 199.35C402.984 216.052 401.462 227.972 401.587 245.184L401.696 260.315L396.296 267.164C393.327 270.931 388.059 277.158 384.592 281.002L378.289 287.991L378.419 268.791C378.546 250.199 378.489 249.592 376.597 249.592C373.948 249.592 365.073 262.814 357.581 277.921C351.649 289.879 345.475 306.79 344.27 314.38C343.657 318.238 343.009 319.016 336.744 323.416C329.686 328.372 328.241 329.008 328.241 327.157C328.241 326.566 327.532 324.588 326.665 322.761L325.088 319.438H309.128H293.168L289.816 313.719C278.458 294.34 268.615 265.078 266.107 243.242C265.609 238.904 265.654 238.822 269.516 237.006C273.555 235.106 288.074 223.567 289.459 221.157C290.005 220.206 292.228 219.797 296.85 219.797C330.574 219.797 364.033 196.828 378.243 163.923C384.059 150.453 385.877 139.342 385.877 117.267C385.877 88.6026 387.483 89.8725 351.247 89.8725H325.311V84.4997V79.1269H329.023C331.064 79.1269 333.262 78.5994 333.907 77.9546C334.684 77.178 335.079 72.9618 335.079 65.4506C335.079 57.9394 334.684 53.7232 333.907 52.9466C332.208 51.2478 167.974 51.2478 166.275 52.9466C164.659 54.5634 164.659 76.3379 166.275 77.9546C167.162 78.8416 182.292 79.1269 228.389 79.1269H289.33L288.864 115.515C288.388 152.766 288.098 155.927 283.86 170.21C276.576 194.751 257.169 221.531 237.392 234.328C233.581 236.794 232.516 237.906 233.729 238.152C235.152 238.443 235.438 239.596 235.438 245.049C235.438 257.768 238.292 275.332 242.446 288.178C244.898 295.758 252.076 311.458 254.908 315.437C256.02 316.997 256.929 318.537 256.929 318.856C256.929 319.176 238.662 319.438 216.334 319.438H175.739L173.794 323.834C172.725 326.252 171.541 328.222 171.163 328.213C170.785 328.204 167.458 326.115 163.771 323.572L157.064 318.95L154.81 309.979C150.542 293.003 141.873 273.954 131.107 257.895C127.221 252.098 124.95 249.592 123.586 249.592C121.694 249.592 121.636 250.199 121.763 268.791L121.894 287.991L115.59 281.002C112.123 277.158 106.856 270.931 103.886 267.164L98.486 260.315L98.5954 245.184C98.7205 227.972 97.1985 216.052 92.742 199.35C89.2584 186.291 88.4975 184.629 86.0006 184.629C83.9882 184.629 81.4522 191.732 77.1061 209.54C75.926 214.375 74.6522 218.678 74.2761 219.101C73.5532 219.916 65.8515 204.037 61.8893 193.565L59.5419 187.359L63.002 177.446C67.8659 163.517 70.1527 151.5 71.4901 132.855C72.758 115.18 72.3751 111.364 69.3341 111.364C67.9362 111.364 65.4637 114.276 60.6194 121.625C56.9004 127.268 52.65 134.102 51.1759 136.812C49.1743 140.489 48.2932 141.376 47.6973 140.313C46.821 138.747 43.9949 115.032 43.9803 109.118C43.9724 106.095 45.1672 103.741 50.4257 96.4186C58.7301 84.8543 69.3087 63.4363 74.3142 48.0535C77.3884 38.6032 77.999 35.6608 77.1081 34.5872C76.4809 33.8321 75.588 33.2138 75.124 33.2138C74.0309 33.2138 63.0323 42.455 53.8985 51.0486C49.9568 54.7568 46.5289 57.5887 46.2818 57.3416C45.5276 56.5875 49.5612 34.4163 52.7155 21.9797C54.3498 15.5323 55.6891 8.86025 55.6901 7.15365C55.6959 0.922159 47.161 -2.30153 42.6361 2.22238ZM119.935 91.4013C114.881 94.1444 114.306 96.7878 114.306 117.267C114.306 139.342 116.123 150.453 121.94 163.923C136.198 196.94 169.596 219.797 203.584 219.797H210.446L206.502 215.645C204.333 213.362 201.198 209.714 199.534 207.537C196.808 203.973 195.756 203.404 188.884 201.784C174.478 198.388 157.541 187.756 148.468 176.414C134.856 159.398 129.936 143.663 129.936 117.155V105.503H152.404H174.872V97.6875V89.8725L148.74 89.9116C127.534 89.9438 122.105 90.2242 119.935 91.4013ZM370.247 117.155C370.247 143.663 365.326 159.398 351.715 176.414C343.095 187.191 327.436 197.365 313.608 201.176C309.589 202.283 305.954 203.19 305.529 203.19C305.104 203.19 306.103 200.882 307.75 198.061C314.763 186.045 319.164 174.792 322.528 160.277C324.05 153.709 324.588 146.902 325.019 128.703L325.57 105.503H347.909H370.247V117.155Z" fill="#F7BC14"/>
<path fill-rule="evenodd" clip-rule="evenodd" d="M67.4948 38.9422C52.5788 51.4354 45.7534 58.466 44.84 62.2807C44.3575 64.2931 43.7166 74.9508 43.4138 85.965L42.8648 105.991L45.4184 103.06C55.065 91.9933 68.5547 66.1687 74.6846 47.0356C77.4472 38.4127 77.9844 35.6433 77.1023 34.5804C76.4791 33.8292 75.6009 33.2138 75.1515 33.2138C74.7021 33.2138 71.2567 35.7917 67.4948 38.9422ZM423.08 34.5804C422.198 35.6433 422.735 38.4127 425.498 47.0356C431.628 66.1687 445.118 91.9933 454.764 103.06L457.318 105.991L456.769 85.965C456.466 74.9508 455.825 64.2931 455.343 62.2807C454.684 59.5337 452.603 56.8825 446.997 51.6464C437.55 42.8243 426.098 33.2138 425.031 33.2138C424.582 33.2138 423.704 33.8292 423.08 34.5804ZM165.955 53.4839C164.715 55.0655 164.761 55.086 166.568 53.7604C167.643 52.972 168.706 52.2032 168.93 52.0508C169.153 51.8985 168.877 51.7744 168.316 51.7744C167.755 51.7744 166.693 52.5432 165.955 53.4839ZM298.935 65.4506V79.1269H315.835C327.677 79.1269 333.086 78.7762 333.907 77.9547C335.524 76.3379 335.524 54.5634 333.907 52.9466C333.086 52.1251 327.677 51.7744 315.835 51.7744H298.935V65.4506ZM0.66281 67.0791C-0.551446 68.2924 0.00244248 86.6381 1.51465 95.3088C5.23361 116.634 15.6051 136.846 28.2713 147.45C30.8766 149.631 33.2045 151.416 33.4458 151.416C33.6861 151.416 33.1058 146.909 32.1573 141.403C31.2078 135.896 29.8792 125.016 29.2042 117.225L27.9782 103.06L21.7155 94.2831C18.272 89.4564 12.8151 81.2135 9.59145 75.9667C4.17565 67.1543 2.37723 65.3637 0.66281 67.0791ZM490.621 75.9188C487.38 81.192 481.911 89.4564 478.467 94.2831L472.204 103.06L470.978 117.225C470.303 125.016 468.975 135.896 468.025 141.403C467.077 146.909 466.497 151.416 466.737 151.416C466.978 151.416 469.306 149.631 471.911 147.45C488.922 133.208 500.746 103.319 499.963 76.5421C499.58 63.4178 498.353 63.3367 490.621 75.9188ZM115.892 95.2834C114.949 97.7393 115.227 98.3733 116.379 96.3932C116.949 95.4124 117.21 94.4043 116.958 94.1532C116.707 93.9012 116.226 94.4101 115.892 95.2834ZM382.977 94.2685C382.977 94.8057 383.403 95.9047 383.923 96.7107C384.444 97.5166 384.87 97.7364 384.87 97.1991C384.87 96.6618 384.444 95.5628 383.923 94.7569C383.403 93.951 382.977 93.7312 382.977 94.2685ZM61.7429 119.911C52.7029 133.413 47.8781 142.244 47.8781 145.288C47.8781 148.577 53.7804 172.92 56.4697 180.722C57.4886 183.677 58.7195 186.024 59.205 185.938C60.6439 185.684 66.0578 169.304 68.3319 158.32C70.6686 147.04 73.0317 118.257 71.9659 114.05C70.7048 109.069 67.9412 110.654 61.7429 119.911ZM428.217 114.05C427.151 118.257 429.514 147.04 431.851 158.32C434.125 169.301 439.538 185.682 440.978 185.937C441.463 186.024 442.694 183.677 443.713 180.722C446.402 172.92 452.305 148.577 452.305 145.288C452.305 142.244 447.48 133.413 438.44 119.911C432.241 110.654 429.478 109.069 428.217 114.05ZM7.21569 164.568C6.4801 166.487 10.1854 177.535 14.639 186.703C22.0154 201.885 31.6161 214.246 42.3109 222.329C48.0227 226.647 61.4762 233.877 62.288 233.065C62.4932 232.86 60.4574 228.142 57.7641 222.581C53.715 214.223 47.0243 198.266 44.6554 191.318C44.3526 190.43 40.448 186.939 35.9788 183.561C31.5086 180.182 24.0414 174.204 19.3827 170.277C10.9102 163.135 8.24532 161.886 7.21569 164.568ZM482.099 169.16C478.338 172.411 470.947 178.358 465.674 182.376C460.401 186.393 455.837 190.412 455.532 191.306C453.018 198.674 446.46 214.248 442.383 222.536C439.66 228.072 437.62 232.79 437.85 233.02C438.699 233.869 452.005 226.764 457.872 222.329C471.79 211.81 484.831 192.443 491.339 172.628C495.075 161.253 492.406 160.252 482.099 169.16ZM140.696 166.842C140.688 167.536 141.615 169.075 142.755 170.262C144.588 172.167 144.706 172.191 143.765 170.465C141.69 166.657 140.713 165.502 140.696 166.842ZM357.152 169.207L355.315 172.418L357.478 170.186C358.668 168.958 359.495 167.514 359.315 166.975C359.136 166.437 358.162 167.441 357.152 169.207ZM81.7005 192.689C78.762 202.395 74.2538 220.12 74.2538 221.969C74.2538 225.456 96.2198 260.275 97.8023 259.296C99.2188 258.421 98.789 230.882 97.1927 220.285C95.7118 210.455 90.5803 189.71 88.8121 186.406C88.2895 185.429 87.0245 184.629 86.0007 184.629C84.5197 184.629 83.6445 186.27 81.7005 192.689ZM411.371 186.406C409.602 189.71 404.471 210.455 402.99 220.285C401.394 230.882 400.964 258.421 402.38 259.296C403.963 260.275 425.929 225.456 425.929 221.969C425.929 220.12 421.421 202.395 418.482 192.689C416.538 186.27 415.663 184.629 414.182 184.629C413.158 184.629 411.893 185.429 411.371 186.406ZM165.103 191.837C165.103 192.039 165.872 192.809 166.813 193.546C168.362 194.761 168.396 194.726 167.182 193.177C165.905 191.55 165.103 191.033 165.103 191.837ZM333.001 193.177C331.786 194.726 331.821 194.761 333.37 193.546C334.31 192.809 335.079 192.039 335.079 191.837C335.079 191.033 334.277 191.55 333.001 193.177ZM352.589 198.061L350.221 200.748L352.907 198.38C354.385 197.077 355.594 195.868 355.594 195.694C355.594 194.927 354.803 195.551 352.589 198.061ZM147.031 198.306C148.003 199.38 149.019 200.259 149.288 200.259C149.556 200.259 148.98 199.38 148.008 198.306C147.036 197.231 146.02 196.352 145.751 196.352C145.483 196.352 146.059 197.231 147.031 198.306ZM121.829 249.721C120.94 250.61 121.053 273.849 121.992 283.232L122.718 290.497L129.99 297.218C136.913 303.616 155.965 319.438 156.746 319.438C157.468 319.438 154.299 307.088 151.357 298.435C147.389 286.772 138.127 268.175 131.164 257.895C125.925 250.159 123.507 248.042 121.829 249.721ZM372.175 253.193C363.102 265.693 354.138 283.112 348.806 298.601C345.898 307.048 342.706 319.438 343.437 319.438C344.391 319.438 363.745 303.218 370.419 296.826L377.916 289.644L378.549 278.409C378.897 272.231 379.04 263.224 378.866 258.394C378.482 247.72 376.989 246.559 372.175 253.193ZM42.139 252.375C39.2797 255.82 59.5508 279.083 73.7018 288.595C86.6376 297.292 101.082 302.831 110.823 302.831H114.542L108.318 296.226C104.895 292.594 97.856 284.336 92.6757 277.877C83.6366 266.608 83.0261 266.061 77.5673 264.34C74.4394 263.354 65.6758 259.962 58.0933 256.802C50.5118 253.642 44.0664 251.057 43.7704 251.057C43.4744 251.057 42.7407 251.65 42.139 252.375ZM442.536 256.528C435.82 259.417 427.303 262.768 423.61 263.976C416.919 266.164 416.862 266.214 407.491 277.897C402.32 284.345 395.287 292.594 391.864 296.226L385.641 302.831H389.36C399.101 302.831 413.545 297.292 426.481 288.595C440.632 279.083 460.903 255.82 458.044 252.375C456.53 250.552 456.273 250.621 442.536 256.528ZM288.189 320.397C288.189 320.924 291.531 330.375 295.615 341.399L303.041 361.444H319.469C328.504 361.444 336.592 361.177 337.442 360.851C339.935 359.895 339.277 356.277 334.216 343.097C331.592 336.263 329.125 329.573 328.735 328.23C328.344 326.887 327.363 324.36 326.556 322.613L325.088 319.438H306.639C295.222 319.438 288.189 319.804 288.189 320.397ZM173.073 326.276C173.073 327.62 173.294 328.17 173.565 327.497C173.836 326.826 173.836 325.727 173.565 325.055C173.294 324.384 173.073 324.933 173.073 326.276Z" fill="#FFAA55"/>
<path fill-rule="evenodd" clip-rule="evenodd" d="M67.4948 38.9422C52.5788 51.4354 45.7534 58.466 44.84 62.2807C44.3575 64.2931 43.7166 74.9508 43.4138 85.965L42.8648 105.991L45.4184 103.06C55.065 91.9933 68.5547 66.1687 74.6846 47.0356C77.4472 38.4127 77.9844 35.6433 77.1023 34.5804C76.4791 33.8292 75.6009 33.2138 75.1515 33.2138C74.7021 33.2138 71.2567 35.7917 67.4948 38.9422ZM423.08 34.5804C422.198 35.6433 422.735 38.4127 425.498 47.0356C431.628 66.1687 445.118 91.9933 454.764 103.06L457.318 105.991L456.769 85.965C456.466 74.9508 455.825 64.2931 455.343 62.2807C454.684 59.5337 452.603 56.8825 446.997 51.6464C437.55 42.8243 426.098 33.2138 425.031 33.2138C424.582 33.2138 423.704 33.8292 423.08 34.5804ZM165.955 53.4839C164.715 55.0655 164.761 55.086 166.568 53.7604C167.643 52.972 168.706 52.2032 168.93 52.0508C169.153 51.8985 168.877 51.7744 168.316 51.7744C167.755 51.7744 166.693 52.5432 165.955 53.4839ZM298.935 65.4506V79.1269H315.835C327.677 79.1269 333.086 78.7762 333.907 77.9547C335.524 76.3379 335.524 54.5634 333.907 52.9466C333.086 52.1251 327.677 51.7744 315.835 51.7744H298.935V65.4506ZM0.66281 67.0791C-0.551446 68.2924 0.00244248 86.6381 1.51465 95.3088C5.23361 116.634 15.6051 136.846 28.2713 147.45C30.8766 149.631 33.2045 151.416 33.4458 151.416C33.6861 151.416 33.1058 146.909 32.1573 141.403C31.2078 135.896 29.8792 125.016 29.2042 117.225L27.9782 103.06L21.7155 94.2831C18.272 89.4564 12.8151 81.2135 9.59145 75.9667C4.17565 67.1543 2.37723 65.3637 0.66281 67.0791ZM490.621 75.9188C487.38 81.192 481.911 89.4564 478.467 94.2831L472.204 103.06L470.978 117.225C470.303 125.016 468.975 135.896 468.025 141.403C467.077 146.909 466.497 151.416 466.737 151.416C466.978 151.416 469.306 149.631 471.911 147.45C488.922 133.208 500.746 103.319 499.963 76.5421C499.58 63.4178 498.353 63.3367 490.621 75.9188ZM115.892 95.2834C114.949 97.7393 115.227 98.3733 116.379 96.3932C116.949 95.4124 117.21 94.4043 116.958 94.1532C116.707 93.9012 116.226 94.4101 115.892 95.2834ZM382.977 94.2685C382.977 94.8057 383.403 95.9047 383.923 96.7107C384.444 97.5166 384.87 97.7364 384.87 97.1991C384.87 96.6618 384.444 95.5628 383.923 94.7569C383.403 93.951 382.977 93.7312 382.977 94.2685ZM61.7429 119.911C52.7029 133.413 47.8781 142.244 47.8781 145.288C47.8781 148.577 53.7804 172.92 56.4697 180.722C57.4886 183.677 58.7195 186.024 59.205 185.938C60.6439 185.684 66.0578 169.304 68.3319 158.32C70.6686 147.04 73.0317 118.257 71.9659 114.05C70.7048 109.069 67.9412 110.654 61.7429 119.911ZM428.217 114.05C427.151 118.257 429.514 147.04 431.851 158.32C434.125 169.301 439.538 185.682 440.978 185.937C441.463 186.024 442.694 183.677 443.713 180.722C446.402 172.92 452.305 148.577 452.305 145.288C452.305 142.244 447.48 133.413 438.44 119.911C432.241 110.654 429.478 109.069 428.217 114.05ZM7.21569 164.568C6.4801 166.487 10.1854 177.535 14.639 186.703C22.0154 201.885 31.6161 214.246 42.3109 222.329C48.0227 226.647 61.4762 233.877 62.288 233.065C62.4932 232.86 60.4574 228.142 57.7641 222.581C53.715 214.223 47.0243 198.266 44.6554 191.318C44.3526 190.43 40.448 186.939 35.9788 183.561C31.5086 180.182 24.0414 174.204 19.3827 170.277C10.9102 163.135 8.24532 161.886 7.21569 164.568ZM482.099 169.16C478.338 172.411 470.947 178.358 465.674 182.376C460.401 186.393 455.837 190.412 455.532 191.306C453.018 198.674 446.46 214.248 442.383 222.536C439.66 228.072 437.62 232.79 437.85 233.02C438.699 233.869 452.005 226.764 457.872 222.329C471.79 211.81 484.831 192.443 491.339 172.628C495.075 161.253 492.406 160.252 482.099 169.16ZM140.696 166.842C140.688 167.536 141.615 169.075 142.755 170.262C144.588 172.167 144.706 172.191 143.765 170.465C141.69 166.657 140.713 165.502 140.696 166.842ZM357.152 169.207L355.315 172.418L357.478 170.186C358.668 168.958 359.495 167.514 359.315 166.975C359.136 166.437 358.162 167.441 357.152 169.207ZM81.7005 192.689C78.762 202.395 74.2538 220.12 74.2538 221.969C74.2538 225.456 96.2198 260.275 97.8023 259.296C99.2188 258.421 98.789 230.882 97.1927 220.285C95.7118 210.455 90.5803 189.71 88.8121 186.406C88.2895 185.429 87.0245 184.629 86.0007 184.629C84.5197 184.629 83.6445 186.27 81.7005 192.689ZM411.371 186.406C409.602 189.71 404.471 210.455 402.99 220.285C401.394 230.882 400.964 258.421 402.38 259.296C403.963 260.275 425.929 225.456 425.929 221.969C425.929 220.12 421.421 202.395 418.482 192.689C416.538 186.27 415.663 184.629 414.182 184.629C413.158 184.629 411.893 185.429 411.371 186.406ZM121.829 249.721C120.94 250.61 121.053 273.849 121.992 283.232L122.718 290.497L129.99 297.218C136.913 303.616 155.965 319.438 156.746 319.438C157.468 319.438 154.299 307.088 151.357 298.435C147.389 286.772 138.127 268.175 131.164 257.895C125.925 250.159 123.507 248.042 121.829 249.721ZM372.175 253.193C363.102 265.693 354.138 283.112 348.806 298.601C345.898 307.048 342.706 319.438 343.437 319.438C344.391 319.438 363.745 303.218 370.419 296.826L377.916 289.644L378.549 278.409C378.897 272.231 379.04 263.224 378.866 258.394C378.482 247.72 376.989 246.559 372.175 253.193ZM42.139 252.375C39.2797 255.82 59.5508 279.083 73.7018 288.595C86.6376 297.292 101.082 302.831 110.823 302.831H114.542L108.318 296.226C104.895 292.594 97.856 284.336 92.6757 277.877C83.6366 266.608 83.0261 266.061 77.5673 264.34C74.4394 263.354 65.6758 259.962 58.0933 256.802C50.5118 253.642 44.0664 251.057 43.7704 251.057C43.4744 251.057 42.7407 251.65 42.139 252.375ZM442.536 256.528C435.82 259.417 427.303 262.768 423.61 263.976C416.919 266.164 416.862 266.214 407.491 277.897C402.32 284.345 395.287 292.594 391.864 296.226L385.641 302.831H389.36C399.101 302.831 413.545 297.292 426.481 288.595C440.632 279.083 460.903 255.82 458.044 252.375C456.53 250.552 456.273 250.621 442.536 256.528ZM288.189 320.397C288.189 320.924 291.531 330.375 295.615 341.399L303.041 361.444H319.469C328.504 361.444 336.592 361.177 337.442 360.851C339.935 359.895 339.277 356.277 334.216 343.097C331.592 336.263 329.125 329.573 328.735 328.23C328.344 326.887 327.363 324.36 326.556 322.613L325.088 319.438H306.639C295.222 319.438 288.189 319.804 288.189 320.397ZM173.073 326.276C173.073 327.62 173.294 328.17 173.565 327.497C173.836 326.826 173.836 325.727 173.565 325.055C173.294 324.384 173.073 324.933 173.073 326.276Z" fill="#FFAA00"/>
<path fill-rule="evenodd" clip-rule="evenodd" d="M67.2603 39.1786C63.3157 42.4589 56.7472 48.3504 52.6619 52.2706L45.2347 59.3989L44.6339 66.577C43.2634 82.9543 42.774 101.376 43.6668 102.971C45.0725 105.482 55.3385 90.5085 63.4827 74.0677C71.412 58.0635 78.7962 36.6211 77.0877 34.5618C76.4722 33.8204 75.6224 33.2138 75.1994 33.2138C74.7764 33.2138 71.204 35.8972 67.2603 39.1786ZM423.095 34.5618C421.386 36.6211 428.771 58.0635 436.7 74.0677C444.844 90.5085 455.11 105.482 456.516 102.971C457.409 101.376 456.919 82.9543 455.549 66.577L454.948 59.3989L447.521 52.2706C439.049 44.1401 426.127 33.2138 424.983 33.2138C424.56 33.2138 423.71 33.8204 423.095 34.5618ZM298.935 65.4506V79.1269H315.996C331.864 79.1269 333.128 78.995 334.068 77.2376C335.515 74.5336 335.382 54.4217 333.907 52.9466C333.086 52.1251 327.677 51.7744 315.835 51.7744H298.935V65.4506ZM0.66281 67.0791C-0.551446 68.2924 0.00244248 86.6381 1.51465 95.3088C5.22286 116.569 15.6969 136.922 28.407 147.564C33.4721 151.804 33.691 151.634 32.2296 144.578C30.8209 137.774 28.3602 115.409 28.3504 109.312C28.3426 104.943 27.8004 103.065 25.6542 99.9783C18.2036 89.262 10.7373 78.0064 7.44721 72.533C4.04085 66.8652 2.28638 65.4555 0.66281 67.0791ZM492.767 72.4812C489.449 77.9996 481.996 89.2376 474.528 99.9783C472.382 103.065 471.84 104.943 471.832 109.312C471.822 115.409 469.362 137.774 467.953 144.578C466.492 151.634 466.711 151.804 471.776 147.564C488.868 133.253 500.747 103.325 499.963 76.5421C499.606 64.2872 498.178 63.4813 492.767 72.4812ZM61.7429 119.911C58.5954 124.613 54.1487 131.68 51.8618 135.617L47.7042 142.774L48.8384 149.293C50.123 156.669 54.6557 173.647 57.4886 181.699L59.3799 187.072L60.5707 184.141C64.9871 173.266 68.5302 159.798 70.2066 147.508C71.6465 136.949 72.6732 116.891 71.9249 113.91C70.7116 109.076 67.8806 110.744 61.7429 119.911ZM428.258 113.91C427.509 116.891 428.536 136.949 429.976 147.508C431.652 159.798 435.196 173.266 439.612 184.141L440.803 187.072L442.694 181.699C445.527 173.647 450.06 156.669 451.344 149.293L452.478 142.774L448.321 135.617C446.034 131.68 441.587 124.613 438.44 119.911C432.302 110.744 429.471 109.076 428.258 113.91ZM7.24597 164.489C6.14992 167.348 13.4618 185.919 19.6933 196.099C25.8994 206.24 29.7698 210.893 38.4278 218.626C45.6176 225.048 61.0064 234.347 62.3017 233.052C62.5518 232.802 61.2115 229.828 59.3242 226.442C55.9276 220.349 47.2842 200.275 44.9895 193.151C44.0595 190.261 42.0745 188.165 35.8274 183.475C31.4412 180.182 24.0414 174.259 19.3827 170.312C10.9845 163.199 8.24629 161.885 7.24597 164.489ZM481.611 169.588C477.581 173.073 470.258 178.966 465.336 182.682C458.195 188.074 456.148 190.185 455.197 193.139C452.899 200.274 444.258 220.345 440.858 226.442C438.971 229.828 437.631 232.802 437.881 233.052C439.176 234.347 454.565 225.048 461.755 218.626C475.881 206.009 484.905 191.766 491.565 171.572C495.026 161.077 492.119 160.498 481.611 169.588ZM81.6956 192.689C80.3504 197.122 78.087 205.411 76.6657 211.112L74.0818 221.476L76.7301 226.702C82.48 238.05 96.1113 258.872 97.7906 258.872C99.2325 258.872 98.7987 231.359 97.1859 220.523C95.6932 210.502 90.5998 189.745 88.8121 186.406C88.2895 185.43 87.0245 184.629 86.0007 184.629C84.5197 184.629 83.6425 186.272 81.6956 192.689ZM411.371 186.406C409.583 189.745 404.489 210.502 402.997 220.523C401.384 231.359 400.95 258.872 402.392 258.872C404.071 258.872 417.703 238.05 423.453 226.702L426.101 221.476L423.517 211.112C418.572 191.282 416.227 184.629 414.182 184.629C413.158 184.629 411.893 185.43 411.371 186.406ZM121.483 250.607C121.135 251.513 121.107 260.404 121.421 270.364L121.992 288.474L127.185 293.765C133.119 299.81 145.978 311.033 152.274 315.662L156.54 318.798L155.824 314.479C153.492 300.41 141.82 273.628 131.164 257.895C125.567 249.633 122.688 247.465 121.483 250.607ZM372.175 253.193C359.822 270.214 347.021 298.417 344.359 314.479L343.643 318.798L347.909 315.662C354.221 311.021 367.069 299.805 373.042 293.72L378.279 288.385L378.415 269.011C378.538 251.5 378.391 249.604 376.892 249.307C375.843 249.1 374.109 250.528 372.175 253.193ZM42.1956 252.306C40.5926 254.238 47.0654 263.794 57.0803 274.281C72.5901 290.522 91.6939 301.018 108.444 302.503L114.794 303.067L107.887 295.866C100.203 287.858 93.2471 279.691 87.1436 271.513C83.7011 266.899 82.2847 265.827 77.7353 264.393C74.7901 263.464 66.5374 260.273 59.3965 257.301C43.0875 250.513 43.5691 250.653 42.1956 252.306ZM453.281 252.042C451.322 253.319 423.217 264.43 419.869 265.251C418.215 265.656 415.689 267.963 413.107 271.422C406.935 279.692 400.004 287.833 392.296 295.866L385.389 303.067L391.738 302.503C403.257 301.482 416.193 296.026 429.426 286.609C441.771 277.824 460.535 255.377 458.043 252.375C456.756 250.824 455.305 250.723 453.281 252.042ZM291.066 320.269L288.57 320.904L295.991 340.93L303.41 360.955L318.024 361.245C336.715 361.615 338.995 361.233 338.964 357.737C338.951 356.283 337.81 352.457 336.428 349.233C334.123 343.858 330.321 333.904 326.668 323.675L325.214 319.609L309.389 319.621C300.684 319.628 292.439 319.919 291.066 320.269Z" fill="#FF901D"/>
<path fill-rule="evenodd" clip-rule="evenodd" d="M30.7828 211.982C31.7548 213.057 32.7708 213.936 33.0394 213.936C33.308 213.936 32.7317 213.057 31.7597 211.982C30.7877 210.907 29.7718 210.028 29.5031 210.028C29.2345 210.028 29.8108 210.907 30.7828 211.982ZM468.33 212.226L466.469 214.424L468.667 212.563C469.877 211.539 470.865 210.551 470.865 210.365C470.865 209.584 470.079 210.161 468.33 212.226Z" fill="#FF8000"/>
</svg>
